<svg width="16" height="16" viewBox="0 0 16 16" fill="none" xmlns="http://www.w3.org/2000/svg" class="w-2.5 h-2.5"><g clip-path="url(#clip0_7127_395561)"><path d="M8.02477 9.14986V6.62486L0.509766 3.35986V6.34486L1.17477 6.63486V12.7299L8.02477 15.9949V9.14986Z" fill="#7B1BAB"></path><path d="M8.0248 10.7348V9.61477L1.1748 6.63477V7.70477L8.0248 10.7348Z" fill="#7B1BAB"></path><path d="M15.5348 3.355V6.345L14.8698 6.64V12.73L12.7248 13.755L11.2098 14.48L8.02477 15.995V6.715L4.83977 5.295H4.83477L3.31977 4.61L0.509766 3.355L3.68977 1.935L3.70477 1.93L5.11477 1.3L8.02477 0L10.9298 1.3L12.3398 1.925L12.3548 1.935L15.5348 3.355Z" fill="#A947D3"></path><path d="M14.8704 6.63477V7.70477L8.02539 10.7348V9.61477L14.8704 6.63477Z" fill="#7B1BAB"></path></g></svg>