<svg width="16" height="16" viewBox="0 0 16 16" fill="none" xmlns="http://www.w3.org/2000/svg" class="w-2.5 h-2.5"><g clip-path="url(#clip0_7127_395563)"><path d="M8.00035 9.14986V6.62486L0.485352 3.35986V6.34486L1.15035 6.63986V12.7299L8.00035 15.9999V9.14986Z" fill="#FF5008"></path><path d="M8.00039 10.7401V9.61514L1.15039 6.64014V7.71014L8.00039 10.7401Z" fill="#FF5008"></path><path d="M15.5154 3.355V6.345L14.8504 6.64V12.73L12.7054 13.755L11.1854 14.48L8.00535 15.995V6.715L4.82035 5.295H4.81535L3.29535 4.61L0.485352 3.355L3.67035 1.935L3.68035 1.93L5.09535 1.3L8.00535 0L10.9054 1.3L12.3204 1.925L12.3304 1.935L15.5154 3.355Z" fill="#FFC800"></path><path d="M14.85 6.64014V7.71014L8 10.7401V9.61514L14.85 6.64014Z" fill="#FF5008"></path></g></svg>