<svg xmlns:xlink="http://www.w3.org/1999/xlink" data-v-11d1cc91="" xmlns="http://www.w3.org/2000/svg" viewBox="0 0 24 24" width="16" height="16"><polygon class="cls-2" points="2 17 7 22 17 22 22 17 22 7 17 2 7 2 2 7 2 17" data-v-11d1cc91="" fill="#A947D3"></polygon><polygon class="cls-1" points="7 4 4 7 4 9 9 4 7 4" data-v-11d1cc91="" fill="#FFFFFF"></polygon><polygon class="cls-3" points="14 15 10 15 9 14 9 7 10 6 14 6 15 7 15 14 14 15" data-v-11d1cc91="" fill="#260D33"></polygon><polygon class="cls-3" points="16 12 16 15 15 16 9 16 8 15 8 12 7 12 7 16 8 17 16 17 17 16 17 12 16 12" data-v-11d1cc91="" fill="#260D33"></polygon><rect class="cls-3" x="11" y="17" width="2" height="1" data-v-11d1cc91="" fill="#260D33"></rect><polygon class="cls-4" points="22 17 20 16 16 20 17 22 22 17" data-v-11d1cc91="" fill="#762699"></polygon></svg>