<svg xmlns:xlink="http://www.w3.org/1999/xlink" data-v-c644053e="" xmlns="http://www.w3.org/2000/svg" viewBox="0 0 24 24" width="20" height="20"><polygon class="cls-4" points="2 17 7 22 17 22 22 17 22 7 17 2 7 2 2 7 2 17" data-v-c644053e="" fill="#05D0FF"></polygon><polygon class="cls-2" points="17 14 17 8 14 11 12 7 10 11 7 8 7 14 17 14" data-v-c644053e="" fill="#01323D"></polygon><rect class="cls-2" x="7" y="15" width="10" height="2" data-v-c644053e="" fill="#01323D"></rect><polygon class="cls-3" points="7 4 4 7 4 9 9 4 7 4" data-v-c644053e="" fill="#FFFFFF"></polygon><polygon class="cls-1" points="22 17 20 16 16 20 17 22 22 17" data-v-c644053e="" fill="#0088CC"></polygon></svg>